:SAMPLES-PER-SECOND 30
:FULLY-SPECIFIED
:DEGREES
139
root  -6.37192 40.732 0.383176 -0.91449 -88.5059 -3.86432
RightUpLeg  9.92707 -3.63032 -2.57664
RightLeg  0.118415 -24.4162 0.140141
RightFoot  -2.75534 -0.374204 4.72941
RightToes  -3.11842e-008 1.75238e-005 3.56266e-009
Spine  -9.10458 -1.42613 -1.97377
Spine1  17.373 -2.87179 5.23538
HEad  -5.46117 1.30171 6.54069
LeftShoulder1  1.88546 -3.81012 -19.2698
LeftArm  -28.3243 -22.2048 -47.3252
LeftForeArm  166.48 -61.5637 -161.42
LeftHand  -0.124934 -6.64 1.49515
RightShoulder  2.3769 5.29805 20.6878
RightArm  -28.8494 17.8037 35.7801
RightForeArm  175.576 57.1028 165.047
RightHand  -0.701212 7.20373 -6.83655
LeftUpLeg  8.35655 3.2864 3.67514
LeftLeg  2.79692 13.6386 -0.421114
LeftFoot  -4.68532 0.244476 -3.72024
LeftToes  4.78904e-008 1.4679e-008 1.35657e-009
140
root  -6.35434 40.7169 0.3358 -6.15051 -88.4894 0.673767
RightUpLeg  10.571 -3.88766 -2.78239
RightLeg  0.404989 -24.1204 0.118744
RightFoot  -3.14748 -0.349021 4.57058
RightToes  -3.11842e-008 1.75238e-005 3.56266e-009
Spine  -9.01923 -1.16208 -1.19785
Spine1  18.1251 -2.23622 3.80106
HEad  -6.11172 1.47267 5.47398
LeftShoulder1  2.10884 -4.49123 -19.9282
LeftArm  -23.8436 -19.9002 -47.2578
LeftForeArm  163.952 -63.0515 -159.987
LeftHand  0.0195281 -6.83196 0.170102
RightShoulder  2.60209 5.90973 21.3693
RightArm  -23.6953 18.3363 35.7152
RightForeArm  175.852 59.2937 163.766
RightHand  -0.193905 6.64161 -2.23226
LeftUpLeg  9.1693 3.35715 3.6728
LeftLeg  2.67793 13.504 -0.400315
LeftFoot  -4.7784 0.254953 -3.94697
LeftToes  4.78904e-008 1.4679e-008 1.35657e-009
141
root  -6.34566 40.7115 0.268926 -6.81226 -88.3247 0.801086
RightUpLeg  11.0451 -4.02245 -2.80919
RightLeg  0.682888 -24.068 0.120306
RightFoot  -3.37743 -0.342048 4.57956
RightToes  -3.11842e-008 1.75238e-005 3.56266e-009
Spine  -9.50897 -1.04619 -0.751902
Spine1  19.0126 -1.90389 2.89792
HEad  -6.43144 1.73591 4.63493
LeftShoulder1  2.18913 -4.91715 -19.5122
LeftArm  -21.3936 -22.2419 -46.4336
LeftForeArm  163.527 -67.0667 -156.166
LeftHand  0.0560116 -7.33598 -0.160551
RightShoulder  2.58545 6.24126 20.1648
RightArm  -20.0573 22.7592 35.0518
RightForeArm  173.915 64.0956 160.115
RightHand  0.0483523 6.45838 0.100186
LeftUpLeg  9.76005 3.48432 3.83002
LeftLeg  2.5905 13.1494 -0.369321
LeftFoot  -4.76691 0.264024 -4.09767
LeftToes  4.78904e-008 1.4679e-008 1.35657e-009
142
root  -6.36727 40.7337 0.204676 -8.94391 -87.9411 3.08435
RightUpLeg  11.1303 -3.94177 -2.73961
RightLeg  0.28333 -24.5577 0.257005
RightFoot  -3.24535 -0.34254 4.52453
RightToes  -3.11842e-008 1.75238e-005 3.56266e-009
Spine  -9.58717 -0.945604 -0.359029
Spine1  17.7743 -1.545 2.05262
HEad  -5.03648 2.06273 3.71457
LeftShoulder1  2.31188 -5.52307 -19.0982
LeftArm  -21.9749 -27.3243 -43.7916
LeftForeArm  160.176 -72.0043 -148.763
LeftHand  0.111304 -6.71488 -0.704909
RightShoulder  2.44439 6.23161 18.6197
RightArm  -18.6011 28.9724 32.6837
RightForeArm  168.509 69.8619 153.294
RightHand  0.120076 6.95942 0.762146
LeftUpLeg  9.60955 3.4088 3.79806
LeftLeg  2.46259 12.8539 -0.335624
LeftFoot  -4.43003 0.282782 -4.24104
LeftToes  4.78904e-008 1.4679e-008 1.35657e-009
143
root  -6.41209 40.7677 0.135994 -11.3387 -87.325 6.09375
RightUpLeg  10.916 -3.90151 -2.74245
RightLeg  -0.443343 -25.2474 0.62062
RightFoot  -2.94109 -0.339103 4.34266
RightToes  -3.11842e-008 1.75238e-005 3.56266e-009
Spine  -9.0351 -0.818703 0.346156
Spine1  14.7906 -1.05003 0.788717
HEad  -3.0805 2.09658 1.9788
LeftShoulder1  2.12435 -5.29868 -17.4953
LeftArm  -23.7441 -33.7909 -42.2393
LeftForeArm  147.039 -77.2451 -132.862
LeftHand  -0.0106744 -5.94352 0.415117
RightShoulder  2.15663 5.84838 16.404
RightArm  -20.3056 35.4004 30.1568
RightForeArm  159.1 75.4045 141.315
RightHand  0.104767 5.73244 0.775359
LeftUpLeg  9.02965 3.12196 3.59295
LeftLeg  2.13765 12.6043 -0.294351
LeftFoot  -3.88622 0.303407 -4.29936
LeftToes  4.78904e-008 1.4679e-008 1.35657e-009
144
root  -6.43637 40.7911 0.0798644 -10.6135 -86.9539 6.414
RightUpLeg  10.0374 -3.75334 -2.59943
RightLeg  -0.903297 -25.8331 0.870867
RightFoot  -2.59979 -0.332532 4.11505
RightToes  -3.11842e-008 1.75238e-005 3.56266e-009
Spine  -7.50678 -0.588007 2.16134
Spine1  10.1323 -0.25182 -1.71224
HEad  -1.91064 1.92813 1.11907
LeftShoulder1  1.8762 -5.01819 -15.2036
LeftArm  -28.3707 -39.269 -40.9624
LeftForeArm  120.032 -80.253 -105.383
LeftHand  0.109447 -5.06504 -0.900612
RightShoulder  1.85472 5.5125 13.6633
RightArm  -25.8419 39.5626 27.8298
RightForeArm  143.372 79.1864 122.816
RightHand  0.212543 5.82812 1.87111
LeftUpLeg  8.13143 2.89214 3.51066
LeftLeg  1.51358 12.5571 -0.437579
LeftFoot  -3.36819 0.30584 -4.09941
LeftToes  4.78904e-008 1.4679e-008 1.35657e-009
